<?xml version="1.0" encoding="UTF-8"?>
<svg xmlns="http://www.w3.org/2000/svg" viewBox="0 0 512 512">
  <defs>
    <linearGradient id="grad" x1="0%" y1="0%" x2="100%" y2="100%">
      <stop offset="0%" stop-color="#4f5bd5" />
      <stop offset="100%" stop-color="#962fbf" />
    </linearGradient>
  </defs>
  <rect width="512" height="512" rx="96" fill="url(#grad)" />
  <path d="M140 176c0-40 32-72 72-72h88c40 0 72 32 72 72v24c0 31-17 58-42 72 25 14 42 41 42 72v24c0 40-32 72-72 72h-88c-40 0-72-32-72-72v-24c0-31 17-58 42-72-25-14-42-41-42-72z" fill="none" stroke="#ffffff" stroke-width="32" stroke-linecap="round" stroke-linejoin="round" />
  <circle cx="256" cy="256" r="48" fill="#ffffff" opacity="0.95" />
</svg>
